<?xml version="1.0" encoding="UTF-8"?>
<svg width="533.15" height="245.58" viewBox="0 0 533.145 245.575" xmlns="http://www.w3.org/2000/svg">
 <path d="m306.96,43.353c1.62-2.7 3.096-5.256 4.571-7.668 1.368-2.556 2.484-4.932 4.177-6.984 1.691-2.088 3.852-4.392 5.651-5.112 1.584-.72 2.7-.504 4.177.792 1.403,1.188 3.384,3.24 4.283,6.732 .828,3.42.828,7.164.396,14.004-.612,6.84-2.088,18.576-3.601,26.604-1.548,7.812-2.88,13.14-5.399,20.448-2.664,7.308-6.624,16.92-10.08,23.004-3.564,5.94-7.848,10.477-10.62,12.492-2.88,1.944-4.536,1.729-5.94-.792-1.439-2.771-2.088-11.125-2.52-14.94-.576-3.816-.108-4.932-.54-7.524-.576-2.736 0-5.328-2.304-8.352-2.376-3.06-4.752-6.228-11.412-9.936-6.876-3.852-17.496-8.388-28.656-12.636-11.124-4.284-22.572-8.316-37.8-12.924-15.516-4.752-34.884-9.9-53.82-15.048-19.044-5.256-38.952-10.224-59.04-15.732-20.268-5.58-47.232-13.608-60.876-17.136-13.571-3.528-15.299-4.176-19.907-4.032-4.608.036-5.976,2.124-7.56,4.176-1.728,1.98-2.376,4.572-2.484,7.632-.252,3.06-.144,6.696 1.296,10.224 1.26,3.348 2.916,6.624 6.768,9.828 3.816,3.024 8.388,5.472 16.236,8.316 7.884,2.664 17.028,4.428 30.492,8.352 13.356,3.96 34.956,10.692 49.248,15.336 14.112,4.536 24.66,8.496 35.388,12.024 10.692,3.528 10.62,2.448 28.368,8.82 17.784,6.3 52.56,19.512 77.256,28.548 24.516,8.785 45.792,16.38 69.121,24.588 23.256,8.208 46.871,16.704 69.3,24.517 22.284,7.703 47.016,16.308 63.359,21.924 16.093,5.508 24.229,8.1 33.156,11.124 8.784,2.771 14.725,4.644 19.764,6.443 4.933,1.836 7.633,2.16 10.332,4.717 2.629,2.556 4.608,7.344 5.652,10.619 .972,3.133 1.116,5.868.432,8.604-.827,2.736-1.8,5.939-4.859,7.812-3.204,1.765-5.652,4.32-13.572,2.952-8.028-1.584-17.1-6.084-33.624-11.844-16.632-5.76-35.964-12.168-64.944-22.428-29.195-10.404-74.124-26.856-108.144-39.097-34.164-12.348-69.228-24.768-94.5-33.947-25.236-9.252-43.236-16.021-55.368-20.845-.288-1.476.072-2.628.684-3.744 .612-1.08 1.692-1.98 3.24-2.7 18,7.02 36.9,14.148 57.672,21.924 20.664,7.704 29.628,10.872 65.628,23.94 36.144,13.104 116.352,42.012 148.716,53.676 31.932,11.304 29.808,10.224 42.372,14.544 12.491,4.284 24.479,9.288 32.22,11.268 7.488,1.908 10.439,1.404 13.176.288 2.808-1.296 4.032-4.824 3.096-7.523-1.188-2.772-2.376-5.509-9.827-9.036-7.668-3.601-15.48-5.688-34.956-12.492-19.729-7.128-61.021-21.672-81.108-28.764-19.908-7.093-7.56-2.196-37.8-12.925-30.672-10.836-109.224-39.023-143.46-51.12-34.02-12.132-38.556-13.788-59.58-20.952-21.204-7.272-47.772-16.488-65.952-22.248-18.18-5.832-31.392-9.324-42.012-12.564-10.692-3.276-15.408-3.78-21.528-7.344-6.228-3.888-11.844-8.784-15.048-14.688-3.312-5.976-4.68-14.436-4.248-19.98 .465-5.687 3.022-9.935 6.982-12.743 3.852-2.772 7.524-4.464 16.272-3.564 8.712.936 19.62,5.004 35.64,8.892 16.02,3.744 40.608,9.288 59.58,13.572 18.756,4.032 30.924,7.416 52.74,11.556 21.888,4.176 59.148,10.872 77.184,13.572 17.712,2.52 20.88,2.268 28.944,2.304 7.92,0 13.824-.72 18.828-1.872 4.896-1.116 8.46-2.808 10.692-4.932z" fill-rule="evenodd" stroke="#000" stroke-miterlimit="10" stroke-width=".036"/>
 <path d="m297.815,71.325c.396-2.772.937-5.544 1.765-8.46 .756-3.096 1.691-6.3 2.808-9.036s2.988-7.092 3.384-6.696c.252.396-.432,3.348-1.908,9 1.152,0 2.412.36 3.637,1.224 1.296.792 2.88,2.268 3.779,3.6 .721,1.188 1.261,3.6.937,3.636-.396-.216-1.98-3.132-3.096-4.032-1.261-.828-2.881-1.98-3.889-.936-.972.936-1.188,4.428-2.016,6.588-1.044,2.088-2.448,5.076-3.384,6.048-.9.864-1.62.504-2.017-.936z" fill-rule="evenodd" stroke="#000" stroke-linecap="round" stroke-linejoin="round" stroke-miterlimit="10" stroke-width=".9978"/>
 <path d="m297.563,88.281c1.98.54 3.672.756 5.22.252 1.513-.396 2.629-1.512 3.637-2.952-1.044.396-1.8.18-2.269-.252-.576-.576-.936-1.8-.54-2.844 .433-1.152 1.836-3.24 3.097-3.348 1.115-.108 3.239,1.152 3.744,2.664 .468,1.332-.217,3.78-.937,5.544-.864,1.764-2.484,3.744-4.032,4.68-1.691.612-4.176.468-5.651,0-1.513-.432-2.628-1.368-3.349-2.664l1.08-1.08z" fill-rule="evenodd" stroke="#000" stroke-linecap="round" stroke-linejoin="round" stroke-miterlimit="10" stroke-width=".9978"/>
 <path d="m194.712,110.313c-.288-.648-.324-1.692-.108-2.736 .18-1.188.612-3.024 1.296-3.996 .576-1.008 1.404-1.764 2.484-2.124 .252-.36.108-.684-.144-.972-.324-.324.432-.216-1.764-.936-2.34-.9-6.696-2.196-11.7-3.888-5.112-1.764-11.088-3.852-18.324-6.408-1.296-.036-2.448.396-3.312,1.296-1.008.9-1.764,2.484-2.124,3.924-.36,1.332-.324,2.448.108,3.78 1.368.504 4.068,1.62 8.388,3.204s12.636,4.644 17.028,6.264c4.176,1.44 6.948,2.304 8.172,2.592z" fill-rule="evenodd" stroke="#000" stroke-linecap="round" stroke-linejoin="round" stroke-miterlimit="10" stroke-width=".9978"/>
 <path d="m180.096,129.249c-.324-.324-.504-1.151-.252-2.088 .144-1.08.72-3.204 1.332-4.032 .54-.9 1.296-1.188 2.124-1.008 .288-.396.252-.685-.252-1.152-.504-.396-.396-.648-2.592-1.44-2.304-.864-6.12-2.124-10.872-3.78-4.824-1.8-10.728-4.104-17.856-6.912-1.296-.036-2.448.396-3.312,1.296-1.008.9-1.764,2.484-2.124,3.924-.36,1.332-.324,2.448.108,3.78 1.368.54 4.068,1.548 8.388,3.168 4.32,1.584 12.636,4.788 17.028,6.265 4.247,1.403 6.912,2.015 8.28,1.979z" fill-rule="evenodd" stroke="#000" stroke-linecap="round" stroke-linejoin="round" stroke-miterlimit="10" stroke-width=".9978"/>
 <path d="m507.479,219.753c-.468.145-.756.612-1.008,1.008-.396.396-.792,1.009-.612,1.692 .216.685.685,1.584 1.692,2.556-.468.828-1.656,1.188-3.168,1.08-1.548-.18-3.313-1.08-6.408-1.728-3.312-.756-10.8-2.521-12.6-2.521-1.765-.144-1.08,1.116 1.907,2.269 2.845,1.116 11.809,3.744 15.372,4.428 3.601.54 5.364.288 5.832-.899 .685,1.008 1.656,1.728 3.061,2.159 1.404.324 3.06.36 5.256.108-.864-2.592-1.944-4.788-3.528-6.444-1.62-1.728-3.456-2.916-5.796-3.708z" fill-rule="evenodd" stroke="#000" stroke-linecap="round" stroke-linejoin="round" stroke-miterlimit="10" stroke-width=".9978"/>
 <path d="m523.788,231.813 4.535,1.8c-.144,1.08-.359,2.052-.647,2.628-.324.54-.72.972-1.188,1.008l-3.6-1.548c.288-1.296.576-2.592.9-3.888z" fill-rule="evenodd" stroke="#000" stroke-linecap="round" stroke-linejoin="round" stroke-miterlimit="10" stroke-width=".9978"/>
 <path d="m527.676,232.065-.828,1.008c.144.072.108.288.18.792-.071.432-.036,1.188-.18,1.836-.216.54-.792,1.044-.9,1.368-.18.18-.18.18 0,0l-.252.72 4.896,1.908c.468-.288.864-.72 1.332-1.296 .468-.685.792-1.584 1.116-2.269 .144-.684.107-1.439-.108-1.979-1.728-.684-3.493-1.368-5.256-2.088z" fill-rule="evenodd" stroke="#000" stroke-linecap="round" stroke-linejoin="round" stroke-miterlimit="10" stroke-width=".036"/>
 <path d="m158.424,111.717c1.224-1.188 3.06-2.7 5.364-4.824 2.34-2.16 5.004-4.68 8.424-7.704 .828-.288 1.584-.36 2.268-.36 .576,0 1.116,0 1.62.54 .504.468.936,1.116 1.44,2.088l-12.744,12.672c-2.124-.792-4.248-1.584-6.372-2.412z" fill-rule="evenodd" stroke="#000" stroke-linecap="round" stroke-linejoin="round" stroke-miterlimit="10" stroke-width=".9978"/>
 <path d="m163.86,113.409c1.188-1.044 2.52-2.196 3.996-3.6 1.404-1.404 2.988-3.276 4.608-4.644 1.512-1.512 2.952-2.7 4.464-3.96 .108-.468-.18-.864-.468-1.188-.396-.468-1.764-.612-1.728-.828-.072-.18.972-.288 1.476-.18 .468.108.756.252 1.152.72 .288.396.504.972.648,1.728l-12.852,12.78c-.432-.252-.864-.54-1.296-.828z" fill-rule="evenodd" stroke="#000" stroke-linecap="round" stroke-linejoin="round" stroke-miterlimit="10" stroke-width=".9978"/>
 <path d="m157.992,111.429c2.16-1.908 4.14-3.888 6.336-5.796 2.016-1.98 4.896-4.824 6.264-5.904 1.26-1.188 1.044-.792 1.692-.9 .648-.18 1.728-.18 1.836,0-.108.072-1.44.324-2.196.9-.864.504-.756.72-2.88,2.736-2.196,2.016-5.616,5.076-10.26,9.324-.252-.108-.504-.216-.792-.36z" fill-rule="evenodd" stroke="#000" stroke-linecap="round" stroke-linejoin="round" stroke-miterlimit="10" stroke-width=".9978"/>
 <path d="m183.444,122.157c1.44-1.548 3.348-3.601 5.724-5.76 2.34-2.196 5.148-4.896 8.424-7.704 .828-.252 1.584-.468 2.268-.36 .576-.036 1.116.108 1.62.576 .504.396.936,1.08 1.44,2.052l-13.968,13.248-5.508-2.052z" fill-rule="evenodd" stroke="#000" stroke-linecap="round" stroke-linejoin="round" stroke-miterlimit="10" stroke-width=".9978"/>
 <path d="m149.315,109.809-3.78-1.152c-.324.18-.828.36-1.368.252-.612-.144-1.368-.288-2.268-.72 .072-.828 0-1.26-.36-1.44-.396-.18-.972-.108-1.728.36l-2.808-1.368c.108-1.44-.324-2.736-1.44-3.888-1.116-1.26-2.808-2.376-5.076-3.348v-.54c.54-.936.396-1.692-.288-2.268s-2.052-.972-3.96-1.188c-2.232.72-3.924,1.584-5.364,2.988-1.476,1.332-2.592,2.592-3.06,4.896-.54,2.196-.576,4.896-.108,8.244l3.276,1.908 1.08-.828c.9.9 2.304,1.296 4.356,1.188 2.016-.216 4.536-.936 7.704-2.16l2.988,1.26c.144.648.216.9.612,1.152 .288.072.72.144 1.296-.18 .792.108 1.404.252 1.98.576 .504.216.864.576 1.08,1.08l4.428,2.088c.324-1.728.72-3.204 1.188-4.284 .396-1.188.9-1.98 1.368-2.52l.252-.108z" fill-rule="evenodd" stroke="#000" stroke-linecap="round" stroke-linejoin="round" stroke-miterlimit="10" stroke-width=".9978"/>
 <path d="m151.62,42.921c-.036,3.672-.036,6.3 0,8.172-.036,1.836-.036,2.664 0,2.628l.756,1.044-.504,19.224-1.548,2.124-.324,9.612 5.328,1.476 .144-9.792-1.044-1.152 .396-20.988 1.152-1.728 .144-9.468c-1.476-.36-2.988-.756-4.5-1.152z" fill-rule="evenodd" stroke="#000" stroke-linecap="round" stroke-linejoin="round" stroke-miterlimit="10" stroke-width=".9978"/>
 <path d="m54.456,16.821c-.036,3.672-.036,6.3 0,8.172-.036,1.764-.036,2.628 0,2.592l.756,1.08-.504,19.188-1.548,2.124-.036,5.508 4.788,1.404 .396-5.616-1.08-1.116 .432-20.988 1.116-1.728 .18-9.468c-1.477-.36-2.988-.756-4.5-1.152z" fill-rule="evenodd" stroke="#000" stroke-linecap="round" stroke-linejoin="round" stroke-miterlimit="10" stroke-width=".9978"/>
 <path d="m31.596,10.305c-.072,2.844-.18,4.86-.18,6.444-.072,1.512-.072,2.34 0,2.628l.72,1.044-.504,19.188-1.548,2.124-.324,9.648 5.328,1.476 .144-9.792-1.044-1.152 .396-20.988 1.152-1.728 .144-7.812c-1.404-.36-2.844-.72-4.284-1.08z" fill-rule="evenodd" stroke="#000" stroke-linecap="round" stroke-linejoin="round" stroke-miterlimit="10" stroke-width=".9978"/>
</svg>
